<svg width="170" height="48" viewBox="0 0 170 48" fill="none" xmlns="http://www.w3.org/2000/svg">
<path d="M59.9669 13.8634L48.0681 2.05029C47.3188 1.30639 46.3058 0.888916 45.2499 0.888916H17.5761C16.5203 0.888916 15.5072 1.30639 14.7579 2.05029L2.85921 13.8634C1.28346 15.4278 1.28346 17.9762 2.85921 19.5406L28.5948 45.091C30.1546 46.6395 32.6715 46.6395 34.2312 45.091L59.9669 19.5406C61.5426 17.9762 61.5426 15.4278 59.9669 13.8634Z" fill="white"/>
<path fill-rule="evenodd" clip-rule="evenodd" d="M48.3553 2.02396L60.4785 13.837C62.0898 15.4071 62.0898 17.9967 60.4785 19.5667L34.2044 45.1687C32.6511 46.6822 30.1746 46.6822 28.6213 45.1687L28.2709 44.8272L58.0843 15.9641H45.6376L22.0677 38.7827L18.5231 35.3288L38.5254 15.9641H26.0787L12.3199 29.2844L8.77516 25.8303L18.9662 15.9641H6.51949L2.57198 19.7858L2.34713 19.5667C0.735852 17.9967 0.735854 15.4071 2.34713 13.837L14.4704 2.02396C15.2173 1.29612 16.219 0.888794 17.2619 0.888794H45.5637C46.6066 0.888794 47.6083 1.29612 48.3553 2.02396Z" fill="#FFDF84"/>
<path d="M81.8708 18.5139C80.7689 18.5139 79.7338 18.322 78.7657 17.9382C77.8054 17.5465 76.9592 16.9747 76.2272 16.2227C75.5031 15.4707 74.9363 14.5503 74.527 13.4614C74.1177 12.3647 73.9131 11.1114 73.9131 9.70142C73.9131 7.85275 74.2594 6.27433 74.9521 4.96617C75.6447 3.65017 76.5932 2.64358 77.7975 1.94641C79.0018 1.24142 80.3596 0.888916 81.8708 0.888916C83.9646 0.888916 85.6214 1.37458 86.8415 2.34592C88.0694 3.30942 88.8998 4.66458 89.3327 6.41142L86.4282 6.86967C86.1055 5.867 85.5781 5.068 84.8461 4.47267C84.1141 3.8695 83.1814 3.56792 82.0479 3.56792C80.9066 3.55225 79.9581 3.799 79.2025 4.30817C78.4469 4.81733 77.8762 5.53408 77.4905 6.45842C77.1127 7.38275 76.9238 8.46375 76.9238 9.70142C76.9238 10.9391 77.1127 12.0162 77.4905 12.9327C77.8683 13.8413 78.4351 14.5503 79.1907 15.0594C79.9542 15.5686 80.9066 15.831 82.0479 15.8467C82.9059 15.8545 83.6576 15.7017 84.303 15.3884C84.9485 15.0672 85.4758 14.5855 85.8851 13.9432C86.2944 13.293 86.5699 12.4822 86.7116 11.5109H83.7127V9.29017H89.7341C89.7499 9.4155 89.7617 9.59958 89.7695 9.84242C89.7774 10.0852 89.7813 10.2302 89.7813 10.2772C89.7813 11.8752 89.4626 13.2969 88.825 14.5424C88.1953 15.7801 87.2901 16.7514 86.1095 17.4564C84.9288 18.1614 83.5159 18.5139 81.8708 18.5139Z" fill="white"/>
<path d="M92.3888 18.1614V0.888916H95.2342V18.1614H92.3888Z" fill="white"/>
<path d="M104.403 18.5139C103.128 18.5139 102.014 18.228 101.061 17.6562C100.109 17.0843 99.3691 16.2971 98.8417 15.2944C98.3222 14.2839 98.0625 13.1246 98.0625 11.8164C98.0625 10.4847 98.3301 9.31758 98.8653 8.31492C99.4006 7.31225 100.144 6.52892 101.097 5.96492C102.049 5.40092 103.151 5.11892 104.403 5.11892C105.686 5.11892 106.803 5.40483 107.756 5.97667C108.708 6.5485 109.448 7.33967 109.975 8.35017C110.503 9.35283 110.767 10.5082 110.767 11.8164C110.767 13.1324 110.499 14.2957 109.964 15.3062C109.436 16.3088 108.696 17.0961 107.744 17.6679C106.792 18.2319 105.678 18.5139 104.403 18.5139ZM104.403 15.8584C105.536 15.8584 106.378 15.4824 106.929 14.7304C107.48 13.9784 107.756 13.0071 107.756 11.8164C107.756 10.5866 107.476 9.60742 106.918 8.87892C106.359 8.14258 105.52 7.77442 104.403 7.77442C103.639 7.77442 103.01 7.94675 102.514 8.29142C102.026 8.62825 101.664 9.10217 101.427 9.71317C101.191 10.3163 101.073 11.0174 101.073 11.8164C101.073 13.0462 101.353 14.0293 101.911 14.7657C102.478 15.4942 103.309 15.8584 104.403 15.8584Z" fill="white"/>
<path d="M119.496 18.5139C118.252 18.5139 117.209 18.2202 116.367 17.6327C115.525 17.0452 114.891 16.2462 114.466 15.2357C114.041 14.2173 113.828 13.0776 113.828 11.8164C113.828 10.5396 114.041 9.39592 114.466 8.38542C114.891 7.37492 115.513 6.57983 116.331 6.00017C117.158 5.41267 118.177 5.11892 119.389 5.11892C120.594 5.11892 121.637 5.41267 122.518 6.00017C123.408 6.57983 124.096 7.37492 124.584 8.38542C125.072 9.38808 125.316 10.5317 125.316 11.8164C125.316 13.0854 125.076 14.2252 124.596 15.2357C124.116 16.2462 123.439 17.0452 122.565 17.6327C121.692 18.2202 120.668 18.5139 119.496 18.5139ZM113.344 18.1614V1.24142H116.213V9.25492H115.859V18.1614H113.344ZM119.059 15.9759C119.799 15.9759 120.409 15.7918 120.889 15.4237C121.369 15.0555 121.723 14.5581 121.951 13.9314C122.188 13.2969 122.306 12.5919 122.306 11.8164C122.306 11.0487 122.188 10.3516 121.951 9.72492C121.715 9.09042 121.349 8.58908 120.853 8.22092C120.357 7.84492 119.728 7.65692 118.964 7.65692C118.24 7.65692 117.65 7.83317 117.193 8.18567C116.737 8.53033 116.398 9.016 116.178 9.64267C115.965 10.2615 115.859 10.9861 115.859 11.8164C115.859 12.6389 115.965 13.3635 116.178 13.9902C116.398 14.6168 116.741 15.1064 117.205 15.4589C117.677 15.8036 118.295 15.9759 119.059 15.9759Z" fill="white"/>
<path d="M131.484 18.5139C130.563 18.5139 129.784 18.3416 129.147 17.9969C128.509 17.6444 128.025 17.1783 127.694 16.5987C127.372 16.019 127.21 15.3806 127.21 14.6834C127.21 14.0724 127.313 13.5241 127.517 13.0384C127.722 12.5449 128.037 12.1219 128.462 11.7694C128.887 11.4091 129.438 11.1153 130.115 10.8882C130.626 10.7237 131.225 10.5748 131.909 10.4417C132.602 10.3085 133.35 10.1871 134.153 10.0774C134.963 9.95992 135.81 9.83458 136.691 9.70142L135.676 10.2772C135.684 9.39983 135.487 8.75358 135.085 8.33842C134.684 7.92325 134.007 7.71567 133.055 7.71567C132.48 7.71567 131.925 7.84883 131.39 8.11517C130.855 8.3815 130.481 8.83975 130.268 9.48992L127.671 8.67917C127.986 7.606 128.584 6.74433 129.465 6.09417C130.355 5.444 131.551 5.11892 133.055 5.11892C134.188 5.11892 135.184 5.303 136.042 5.67117C136.908 6.03933 137.549 6.6425 137.966 7.48067C138.195 7.92717 138.332 8.38542 138.38 8.85542C138.427 9.31758 138.45 9.82283 138.45 10.3712V18.1614H135.959V15.4119L136.372 15.8584C135.798 16.7749 135.125 17.4486 134.353 17.8794C133.59 18.3024 132.634 18.5139 131.484 18.5139ZM132.051 16.2579C132.697 16.2579 133.248 16.1443 133.704 15.9172C134.161 15.69 134.523 15.4119 134.79 15.0829C135.066 14.7539 135.251 14.4445 135.345 14.1547C135.495 13.7943 135.577 13.3831 135.593 12.9209C135.617 12.4509 135.629 12.071 135.629 11.7812L136.502 12.0397C135.644 12.1728 134.908 12.2903 134.294 12.3922C133.68 12.494 133.153 12.5919 132.712 12.6859C132.272 12.7721 131.882 12.87 131.543 12.9797C131.213 13.0972 130.933 13.2342 130.705 13.3909C130.477 13.5476 130.3 13.7277 130.174 13.9314C130.056 14.1351 129.997 14.374 129.997 14.6482C129.997 14.9615 130.075 15.2396 130.233 15.4824C130.39 15.7174 130.619 15.9054 130.918 16.0464C131.225 16.1874 131.602 16.2579 132.051 16.2579Z" fill="white"/>
<path d="M141.76 18.1614V0.888916H144.606V18.1614H141.76Z" fill="white"/>
<path d="M74.8576 47.5364V30.6164H77.4197L83.2994 42.6014L89.1792 30.6164H91.7413V47.5364H89.0848V36.6912L83.8662 47.5364H82.7327L77.5259 36.6912V47.5364H74.8576Z" fill="white"/>
<path d="M95.2944 32.9194V30.3227H98.1398V32.9194H95.2944ZM95.2944 47.5364V34.8464H98.1398V47.5364H95.2944Z" fill="white"/>
<path d="M110.496 47.5364V41.4264C110.496 41.0269 110.469 40.5843 110.413 40.0987C110.358 39.613 110.228 39.1469 110.024 38.7004C109.827 38.2461 109.528 37.874 109.127 37.5842C108.733 37.2943 108.198 37.1494 107.521 37.1494C107.159 37.1494 106.801 37.2082 106.446 37.3257C106.092 37.4432 105.769 37.6468 105.478 37.9367C105.195 38.2187 104.967 38.6103 104.793 39.1117C104.62 39.6052 104.534 40.2397 104.534 41.0152L102.845 40.2984C102.845 39.2174 103.054 38.2383 103.471 37.3609C103.896 36.4836 104.518 35.7864 105.337 35.2694C106.155 34.7446 107.163 34.4822 108.359 34.4822C109.304 34.4822 110.083 34.6388 110.697 34.9522C111.311 35.2655 111.799 35.665 112.161 36.1507C112.523 36.6363 112.791 37.1533 112.964 37.7017C113.137 38.25 113.247 38.7709 113.294 39.2644C113.349 39.7501 113.377 40.1457 113.377 40.4512V47.5364H110.496ZM101.653 47.5364V34.8464H104.191V38.7827H104.534V47.5364H101.653Z" fill="white"/>
<path d="M122.048 47.8889C120.757 47.8889 119.623 47.6108 118.647 47.0547C117.671 46.4985 116.908 45.7269 116.357 44.7399C115.814 43.7529 115.542 42.6171 115.542 41.3324C115.542 39.9459 115.81 38.7435 116.345 37.7252C116.88 36.699 117.624 35.9039 118.576 35.3399C119.529 34.7759 120.631 34.4939 121.882 34.4939C123.205 34.4939 124.326 34.8033 125.247 35.4222C126.176 36.0332 126.865 36.8987 127.313 38.0189C127.762 39.1391 127.931 40.459 127.821 41.9787H124.999V40.9447C124.991 39.566 124.747 38.5594 124.267 37.9249C123.787 37.2904 123.031 36.9732 122 36.9732C120.835 36.9732 119.97 37.3335 119.403 38.0542C118.836 38.767 118.553 39.8128 118.553 41.1914C118.553 42.4761 118.836 43.4709 119.403 44.1759C119.97 44.8809 120.796 45.2334 121.882 45.2334C122.583 45.2334 123.185 45.0807 123.689 44.7752C124.2 44.4618 124.594 44.0114 124.869 43.4239L127.679 44.2699C127.191 45.4136 126.436 46.3027 125.412 46.9372C124.397 47.5717 123.275 47.8889 122.048 47.8889ZM117.655 41.9787V39.8402H126.428V41.9787H117.655Z" fill="white"/>
<path d="M130.455 47.5364V34.8464H132.97V37.9367L132.663 37.5372C132.821 37.1142 133.029 36.7303 133.289 36.3857C133.557 36.0332 133.875 35.7433 134.245 35.5162C134.56 35.3047 134.907 35.1402 135.284 35.0227C135.67 34.8973 136.064 34.8229 136.465 34.7994C136.866 34.7681 137.256 34.7837 137.634 34.8464V37.4902C137.256 37.3805 136.819 37.3452 136.323 37.3844C135.835 37.4236 135.395 37.5607 135.001 37.7957C134.607 38.0072 134.285 38.2774 134.033 38.6064C133.789 38.9354 133.608 39.3114 133.49 39.7344C133.372 40.1496 133.313 40.6 133.313 41.0857V47.5364H130.455Z" fill="white"/>
<path d="M143.153 47.8889C142.232 47.8889 141.453 47.7166 140.815 47.3719C140.178 47.0194 139.693 46.5533 139.363 45.9737C139.04 45.394 138.879 44.7556 138.879 44.0584C138.879 43.4474 138.981 42.8991 139.186 42.4134C139.39 41.9199 139.705 41.4969 140.13 41.1444C140.555 40.7841 141.106 40.4903 141.783 40.2632C142.295 40.0987 142.893 39.9498 143.578 39.8167C144.271 39.6835 145.018 39.5621 145.821 39.4524C146.632 39.3349 147.478 39.2096 148.36 39.0764L147.344 39.6522C147.352 38.7748 147.155 38.1286 146.754 37.7134C146.352 37.2982 145.676 37.0907 144.723 37.0907C144.149 37.0907 143.594 37.2238 143.058 37.4902C142.523 37.7565 142.149 38.2147 141.937 38.8649L139.339 38.0542C139.654 36.981 140.252 36.1193 141.134 35.4692C142.023 34.819 143.22 34.4939 144.723 34.4939C145.857 34.4939 146.852 34.678 147.71 35.0462C148.576 35.4143 149.218 36.0175 149.635 36.8557C149.863 37.3022 150.001 37.7604 150.048 38.2304C150.095 38.6926 150.119 39.1978 150.119 39.7462V47.5364H147.628V44.7869L148.041 45.2334C147.466 46.1499 146.793 46.8236 146.022 47.2544C145.258 47.6774 144.302 47.8889 143.153 47.8889ZM143.72 45.6329C144.365 45.6329 144.916 45.5193 145.372 45.2922C145.829 45.065 146.191 44.7869 146.459 44.4579C146.734 44.1289 146.919 43.8195 147.014 43.5297C147.163 43.1693 147.246 42.7581 147.262 42.2959C147.285 41.8259 147.297 41.446 147.297 41.1562L148.171 41.4147C147.313 41.5478 146.577 41.6653 145.963 41.7672C145.349 41.869 144.821 41.9669 144.381 42.0609C143.94 42.1471 143.55 42.245 143.212 42.3547C142.881 42.4722 142.602 42.6092 142.374 42.7659C142.145 42.9226 141.968 43.1028 141.842 43.3064C141.724 43.5101 141.665 43.749 141.665 44.0232C141.665 44.3365 141.744 44.6146 141.901 44.8574C142.059 45.0924 142.287 45.2804 142.586 45.4214C142.893 45.5624 143.271 45.6329 143.72 45.6329Z" fill="white"/>
<path d="M153.429 47.5364V30.2639H156.274V47.5364H153.429Z" fill="white"/>
<path d="M164.734 47.8889C163.16 47.8889 161.881 47.5364 160.897 46.8314C159.913 46.1264 159.315 45.1355 159.102 43.8587L162.007 43.4122C162.156 44.0388 162.487 44.5323 162.999 44.8927C163.51 45.253 164.156 45.4332 164.935 45.4332C165.62 45.4332 166.147 45.3 166.517 45.0337C166.895 44.7595 167.084 44.3874 167.084 43.9174C167.084 43.6276 167.013 43.3965 166.871 43.2242C166.737 43.044 166.438 42.8717 165.974 42.7072C165.51 42.5427 164.797 42.3351 163.837 42.0844C162.766 41.8024 161.916 41.5008 161.287 41.1797C160.657 40.8507 160.204 40.4629 159.929 40.0164C159.653 39.5699 159.516 39.0294 159.516 38.3949C159.516 37.6037 159.724 36.9144 160.141 36.3269C160.559 35.7394 161.141 35.289 161.889 34.9757C162.637 34.6545 163.518 34.4939 164.534 34.4939C165.525 34.4939 166.403 34.6467 167.166 34.9522C167.938 35.2577 168.56 35.6924 169.032 36.2564C169.504 36.8204 169.795 37.4823 169.906 38.2422L167.001 38.7592C166.93 38.2187 166.682 37.7917 166.257 37.4784C165.84 37.1651 165.281 36.9888 164.581 36.9497C163.912 36.9105 163.373 37.0123 162.963 37.2552C162.554 37.4902 162.349 37.8231 162.349 38.2539C162.349 38.4967 162.432 38.7043 162.597 38.8767C162.763 39.049 163.093 39.2213 163.589 39.3937C164.093 39.566 164.84 39.7775 165.832 40.0282C166.848 40.2867 167.658 40.5843 168.264 40.9212C168.878 41.2502 169.319 41.6457 169.587 42.1079C169.862 42.5701 170 43.1302 170 43.7882C170 45.065 169.532 46.0677 168.595 46.7962C167.666 47.5247 166.379 47.8889 164.734 47.8889Z" fill="white"/>
</svg>
