<svg width="126" height="35" viewBox="0 0 126 35" fill="none" xmlns="http://www.w3.org/2000/svg">
<path d="M43.7261 8.94373L35.9309 1.16803C35.1811 0.420052 34.1652 0 33.106 0H13.4592C12.4001 0 11.3842 0.420052 10.6343 1.16803L2.83908 8.94373C1.27225 10.5066 1.27225 13.0448 2.83908 14.6077L20.4577 32.1822C22.019 33.7396 24.5462 33.7396 26.1075 32.1822L43.7261 14.6077C45.293 13.0448 45.293 10.5066 43.7261 8.94373Z" fill="#4A4A4A"/>
<path fill-rule="evenodd" clip-rule="evenodd" d="M36.1426 1.14175L44.0849 8.91745C45.6871 10.4861 45.6871 13.0653 44.0849 14.6339L26.0807 32.2604C24.686 33.6259 22.5416 33.7666 20.9924 32.6825L43.0507 11.2263H33.8255L16.3561 28.2189L13.7289 25.6468L28.5541 11.2263H19.3289L9.13123 21.1456L6.50397 18.5735L14.0573 11.2263H4.83214L1.96378 14.0164C0.901745 12.4492 1.07383 10.2942 2.48003 8.91745L10.4223 1.14175C11.1699 0.409874 12.1744 0 13.2206 0H33.3443C34.3905 0 35.395 0.409873 36.1426 1.14175Z" fill="#FFDF84"/>
<path d="M60.6807 13.125C59.8639 13.125 59.0968 12.9821 58.3792 12.6962C57.6675 12.4046 57.0403 11.9788 56.4978 11.4188C55.961 10.8588 55.541 10.1733 55.2376 9.3625C54.9343 8.54583 54.7826 7.6125 54.7826 6.5625C54.7826 5.18583 55.0393 4.01042 55.5527 3.03625C56.0661 2.05625 56.769 1.30667 57.6616 0.787499C58.5542 0.2625 59.5606 0 60.6807 0C62.2325 0 63.4605 0.361667 64.3648 1.085C65.2749 1.8025 65.8904 2.81167 66.2112 4.1125L64.0585 4.45375C63.8193 3.70708 63.4285 3.11208 62.8859 2.66875C62.3434 2.21958 61.652 1.995 60.8119 1.995C59.966 1.98333 59.263 2.16708 58.703 2.54625C58.1429 2.92542 57.72 3.45917 57.4341 4.1475C57.1541 4.83583 57.0141 5.64083 57.0141 6.5625C57.0141 7.48417 57.1541 8.28625 57.4341 8.96875C57.7141 9.64542 58.1342 10.1733 58.6942 10.5525C59.2601 10.9317 59.966 11.1271 60.8119 11.1388C61.4478 11.1446 62.005 11.0308 62.4834 10.7975C62.9617 10.5583 63.3526 10.1996 63.656 9.72125C63.9593 9.23708 64.1635 8.63333 64.2685 7.91H62.0458V6.25625H66.5088C66.5204 6.34958 66.5292 6.48667 66.535 6.6675C66.5409 6.84833 66.5438 6.95625 66.5438 6.99125C66.5438 8.18125 66.3075 9.24 65.835 10.1675C65.3682 11.0892 64.6973 11.8125 63.8223 12.3375C62.9472 12.8625 61.9 13.125 60.6807 13.125Z" fill="#4A4A4A"/>
<path d="M68.4764 12.8625V0H70.5853V12.8625H68.4764Z" fill="#4A4A4A"/>
<path d="M77.3808 13.125C76.4357 13.125 75.6102 12.9121 74.9043 12.4863C74.1984 12.0604 73.65 11.4742 73.2591 10.7275C72.8741 9.975 72.6816 9.11167 72.6816 8.1375C72.6816 7.14583 72.8799 6.27667 73.2766 5.53C73.6733 4.78333 74.2246 4.2 74.9305 3.78C75.6364 3.36 76.4532 3.15 77.3808 3.15C78.3317 3.15 79.1601 3.36292 79.866 3.78875C80.5719 4.21458 81.1203 4.80375 81.5112 5.55625C81.9021 6.30292 82.0975 7.16333 82.0975 8.1375C82.0975 9.1175 81.8992 9.98375 81.5024 10.7362C81.1116 11.4829 80.5632 12.0692 79.8573 12.495C79.1514 12.915 78.3259 13.125 77.3808 13.125ZM77.3808 11.1475C78.2209 11.1475 78.8451 10.8675 79.2535 10.3075C79.6618 9.7475 79.866 9.02417 79.866 8.1375C79.866 7.22167 79.6589 6.4925 79.2447 5.95C78.8305 5.40167 78.2092 5.1275 77.3808 5.1275C76.8149 5.1275 76.3482 5.25583 75.9806 5.5125C75.6189 5.76333 75.3506 6.11625 75.1756 6.57125C75.0005 7.02042 74.913 7.5425 74.913 8.1375C74.913 9.05333 75.1201 9.78542 75.5343 10.3337C75.9544 10.8762 76.5699 11.1475 77.3808 11.1475Z" fill="#4A4A4A"/>
<path d="M88.5673 13.125C87.6455 13.125 86.8725 12.9063 86.2483 12.4688C85.6241 12.0313 85.1544 11.4362 84.8394 10.6837C84.5244 9.92542 84.3669 9.07667 84.3669 8.1375C84.3669 7.18667 84.5244 6.335 84.8394 5.5825C85.1544 4.83 85.6153 4.23792 86.222 3.80625C86.8346 3.36875 87.5901 3.15 88.4885 3.15C89.3811 3.15 90.1541 3.36875 90.8075 3.80625C91.4667 4.23792 91.9772 4.83 92.3389 5.5825C92.7006 6.32917 92.8815 7.18083 92.8815 8.1375C92.8815 9.0825 92.7035 9.93125 92.3477 10.6837C91.9918 11.4362 91.4901 12.0313 90.8425 12.4688C90.1949 12.9063 89.4365 13.125 88.5673 13.125ZM84.0081 12.8625V0.2625H86.1345V6.23H85.872V12.8625H84.0081ZM88.2435 11.235C88.7919 11.235 89.244 11.0979 89.5999 10.8237C89.9557 10.5496 90.2183 10.1792 90.3875 9.7125C90.5625 9.24 90.65 8.715 90.65 8.1375C90.65 7.56583 90.5625 7.04667 90.3875 6.58C90.2124 6.1075 89.9412 5.73417 89.5736 5.46C89.2061 5.18 88.7394 5.04 88.1735 5.04C87.6368 5.04 87.1992 5.17125 86.8609 5.43375C86.5225 5.69042 86.2716 6.05208 86.1083 6.51875C85.9508 6.97958 85.872 7.51917 85.872 8.1375C85.872 8.75 85.9508 9.28958 86.1083 9.75625C86.2716 10.2229 86.5254 10.5875 86.8696 10.85C87.2196 11.1067 87.6776 11.235 88.2435 11.235Z" fill="#4A4A4A"/>
<path d="M97.4531 13.125C96.7705 13.125 96.193 12.9967 95.7204 12.74C95.2479 12.4775 94.8891 12.1304 94.6441 11.6988C94.4049 11.2671 94.2853 10.7917 94.2853 10.2725C94.2853 9.8175 94.3611 9.40917 94.5128 9.0475C94.6645 8.68 94.8979 8.365 95.2129 8.1025C95.5279 7.83417 95.9363 7.61542 96.438 7.44625C96.8172 7.32375 97.2606 7.21292 97.7681 7.11375C98.2815 7.01458 98.8357 6.92417 99.4308 6.8425C100.032 6.755 100.659 6.66167 101.312 6.5625L100.56 6.99125C100.566 6.33792 100.42 5.85667 100.122 5.5475C99.8246 5.23833 99.3229 5.08375 98.617 5.08375C98.1911 5.08375 97.7798 5.18292 97.3831 5.38125C96.9864 5.57958 96.7093 5.92083 96.5518 6.405L94.6266 5.80125C94.8599 5.00208 95.3033 4.36042 95.9567 3.87625C96.6159 3.39208 97.5027 3.15 98.617 3.15C99.4571 3.15 100.195 3.28708 100.831 3.56125C101.473 3.83542 101.948 4.28458 102.257 4.90875C102.427 5.24125 102.529 5.5825 102.564 5.9325C102.599 6.27667 102.616 6.65292 102.616 7.06125V12.8625H100.77V10.815L101.076 11.1475C100.65 11.83 100.151 12.3317 99.5796 12.6525C99.0137 12.9675 98.3049 13.125 97.4531 13.125ZM97.8732 11.445C98.3515 11.445 98.7599 11.3604 99.0983 11.1913C99.4366 11.0221 99.705 10.815 99.9034 10.57C100.108 10.325 100.245 10.0946 100.315 9.87875C100.425 9.61042 100.487 9.30417 100.498 8.96C100.516 8.61 100.525 8.32708 100.525 8.11125L101.172 8.30375C100.536 8.40292 99.9909 8.49042 99.5358 8.56625C99.0808 8.64208 98.6899 8.715 98.3632 8.785C98.0365 8.84917 97.7477 8.92208 97.4969 9.00375C97.2518 9.09125 97.0447 9.19333 96.8756 9.31C96.7064 9.42667 96.5751 9.56083 96.4818 9.7125C96.3943 9.86417 96.3505 10.0421 96.3505 10.2463C96.3505 10.4796 96.4088 10.6867 96.5255 10.8675C96.6422 11.0425 96.8114 11.1825 97.0331 11.2875C97.2606 11.3925 97.5406 11.445 97.8732 11.445Z" fill="#4A4A4A"/>
<path d="M105.069 12.8625V0H107.178V12.8625H105.069Z" fill="#4A4A4A"/>
<path d="M55.4827 34.7375V22.1375H57.3816L61.7395 31.0625L66.0975 22.1375H67.9964V34.7375H66.0275V26.6612L62.1596 34.7375H61.3195L57.4604 26.6612V34.7375H55.4827Z" fill="#4A4A4A"/>
<path d="M70.6299 23.8525V21.9188H72.7389V23.8525H70.6299ZM70.6299 34.7375V25.2875H72.7389V34.7375H70.6299Z" fill="#4A4A4A"/>
<path d="M81.8971 34.7375V30.1875C81.8971 29.89 81.8766 29.5604 81.8358 29.1987C81.795 28.8371 81.6987 28.49 81.547 28.1575C81.4012 27.8192 81.1795 27.5421 80.882 27.3262C80.5903 27.1104 80.1936 27.0025 79.6918 27.0025C79.4235 27.0025 79.158 27.0463 78.8955 27.1338C78.633 27.2213 78.3938 27.3729 78.1779 27.5887C77.9679 27.7987 77.7987 28.0904 77.6704 28.4638C77.542 28.8312 77.4779 29.3037 77.4779 29.8812L76.2265 29.3475C76.2265 28.5425 76.3811 27.8133 76.6903 27.16C77.0053 26.5067 77.4662 25.9875 78.0729 25.6025C78.6796 25.2117 79.4264 25.0162 80.3131 25.0162C81.0132 25.0162 81.5908 25.1329 82.0458 25.3662C82.5009 25.5996 82.8626 25.8971 83.1309 26.2587C83.3993 26.6204 83.5976 27.0054 83.726 27.4137C83.8543 27.8221 83.936 28.21 83.971 28.5775C84.0119 28.9392 84.0323 29.2338 84.0323 29.4613V34.7375H81.8971ZM75.3426 34.7375V25.2875H77.2241V28.2187H77.4779V34.7375H75.3426Z" fill="#4A4A4A"/>
<path d="M90.4587 35C89.5019 35 88.6618 34.7929 87.9384 34.3788C87.215 33.9646 86.6491 33.39 86.2408 32.655C85.8382 31.92 85.637 31.0742 85.637 30.1175C85.637 29.085 85.8353 28.1896 86.232 27.4312C86.6287 26.6671 87.18 26.075 87.8859 25.655C88.5918 25.235 89.4086 25.025 90.3362 25.025C91.3163 25.025 92.1476 25.2554 92.8302 25.7163C93.5186 26.1713 94.0291 26.8158 94.3616 27.65C94.6941 28.4842 94.8196 29.4671 94.7379 30.5987H92.6464V29.8287C92.6406 28.8021 92.4597 28.0525 92.1039 27.58C91.748 27.1075 91.1879 26.8713 90.4237 26.8713C89.5603 26.8713 88.9185 27.1396 88.4985 27.6763C88.0785 28.2071 87.8684 28.9858 87.8684 30.0125C87.8684 30.9692 88.0785 31.71 88.4985 32.235C88.9185 32.76 89.5311 33.0225 90.3362 33.0225C90.8554 33.0225 91.3017 32.9088 91.6751 32.6813C92.0543 32.4479 92.346 32.1125 92.5502 31.675L94.6329 32.305C94.2712 33.1567 93.7111 33.8187 92.9527 34.2912C92.2001 34.7637 91.3688 35 90.4587 35ZM87.2034 30.5987V29.0063H93.7053V30.5987H87.2034Z" fill="#4A4A4A"/>
<path d="M96.6904 34.7375V25.2875H98.5544V27.5887L98.3268 27.2912C98.4435 26.9762 98.5981 26.6904 98.7906 26.4337C98.989 26.1712 99.2253 25.9554 99.4994 25.7863C99.7328 25.6287 99.9895 25.5062 100.27 25.4187C100.555 25.3254 100.847 25.27 101.145 25.2525C101.442 25.2292 101.731 25.2408 102.011 25.2875V27.2563C101.731 27.1746 101.407 27.1483 101.04 27.1775C100.678 27.2067 100.351 27.3088 100.06 27.4838C99.7678 27.6413 99.5286 27.8425 99.3419 28.0875C99.1611 28.3325 99.0269 28.6125 98.9394 28.9275C98.8519 29.2367 98.8081 29.5721 98.8081 29.9338V34.7375H96.6904Z" fill="#4A4A4A"/>
<path d="M106.101 35C105.419 35 104.841 34.8717 104.369 34.615C103.896 34.3525 103.537 34.0054 103.292 33.5738C103.053 33.1421 102.934 32.6667 102.934 32.1475C102.934 31.6925 103.009 31.2842 103.161 30.9225C103.313 30.555 103.546 30.24 103.861 29.9775C104.176 29.7092 104.585 29.4904 105.086 29.3213C105.466 29.1988 105.909 29.0879 106.416 28.9887C106.93 28.8896 107.484 28.7992 108.079 28.7175C108.68 28.63 109.307 28.5367 109.961 28.4375L109.208 28.8663C109.214 28.2129 109.068 27.7317 108.77 27.4225C108.473 27.1133 107.971 26.9587 107.265 26.9587C106.839 26.9587 106.428 27.0579 106.031 27.2563C105.635 27.4546 105.358 27.7958 105.2 28.28L103.275 27.6763C103.508 26.8771 103.952 26.2354 104.605 25.7512C105.264 25.2671 106.151 25.025 107.265 25.025C108.105 25.025 108.843 25.1621 109.479 25.4363C110.121 25.7104 110.596 26.1596 110.906 26.7837C111.075 27.1162 111.177 27.4575 111.212 27.8075C111.247 28.1517 111.264 28.5279 111.264 28.9362V34.7375H109.418V32.69L109.724 33.0225C109.298 33.705 108.8 34.2067 108.228 34.5275C107.662 34.8425 106.953 35 106.101 35ZM106.521 33.32C107 33.32 107.408 33.2354 107.747 33.0663C108.085 32.8971 108.353 32.69 108.552 32.445C108.756 32.2 108.893 31.9696 108.963 31.7537C109.074 31.4854 109.135 31.1792 109.147 30.835C109.164 30.485 109.173 30.2021 109.173 29.9863L109.821 30.1787C109.185 30.2779 108.639 30.3654 108.184 30.4413C107.729 30.5171 107.338 30.59 107.012 30.66C106.685 30.7242 106.396 30.7971 106.145 30.8788C105.9 30.9663 105.693 31.0683 105.524 31.185C105.355 31.3017 105.223 31.4358 105.13 31.5875C105.043 31.7392 104.999 31.9171 104.999 32.1213C104.999 32.3546 105.057 32.5617 105.174 32.7425C105.291 32.9175 105.46 33.0575 105.681 33.1625C105.909 33.2675 106.189 33.32 106.521 33.32Z" fill="#4A4A4A"/>
<path d="M113.718 34.7375V21.875H115.827V34.7375H113.718Z" fill="#4A4A4A"/>
<path d="M122.097 35C120.93 35 119.982 34.7375 119.253 34.2125C118.524 33.6875 118.08 32.9496 117.923 31.9988L120.076 31.6662C120.186 32.1329 120.432 32.5004 120.811 32.7688C121.19 33.0371 121.668 33.1713 122.246 33.1713C122.753 33.1713 123.144 33.0721 123.418 32.8737C123.698 32.6696 123.839 32.3925 123.839 32.0425C123.839 31.8267 123.786 31.6546 123.681 31.5262C123.582 31.3921 123.36 31.2638 123.016 31.1413C122.672 31.0188 122.144 30.8642 121.432 30.6775C120.639 30.4675 120.009 30.2429 119.542 30.0037C119.075 29.7587 118.74 29.47 118.535 29.1375C118.331 28.805 118.229 28.4025 118.229 27.93C118.229 27.3408 118.384 26.8275 118.693 26.39C119.002 25.9525 119.434 25.6171 119.988 25.3838C120.542 25.1446 121.196 25.025 121.948 25.025C122.683 25.025 123.334 25.1387 123.9 25.3662C124.471 25.5937 124.932 25.9175 125.282 26.3375C125.632 26.7575 125.848 27.2504 125.93 27.8162L123.777 28.2013C123.725 27.7988 123.541 27.4808 123.226 27.2475C122.917 27.0142 122.503 26.8829 121.983 26.8538C121.487 26.8246 121.088 26.9004 120.784 27.0813C120.481 27.2563 120.329 27.5042 120.329 27.825C120.329 28.0058 120.391 28.1604 120.513 28.2888C120.636 28.4171 120.881 28.5454 121.248 28.6737C121.622 28.8021 122.176 28.9596 122.911 29.1462C123.663 29.3387 124.264 29.5604 124.714 29.8113C125.169 30.0563 125.495 30.3508 125.694 30.695C125.898 31.0392 126 31.4563 126 31.9463C126 32.8971 125.653 33.6438 124.959 34.1863C124.27 34.7288 123.316 35 122.097 35Z" fill="#4A4A4A"/>
</svg>
