<svg width="24" height="24" viewBox="0 0 24 24" fill="none" xmlns="http://www.w3.org/2000/svg">
<path d="M12 21C16.9706 21 21 16.9706 21 12C21 7.02944 16.9706 3 12 3C7.02944 3 3 7.02944 3 12C3 16.9706 7.02944 21 12 21Z" stroke="#FFDF84" stroke-width="2"/>
<mask id="mask0_1_2" style="mask-type:luminance" maskUnits="userSpaceOnUse" x="6" y="6" width="12" height="12">
<path d="M14 6H10C7.79086 6 6 7.79086 6 10V14C6 16.2091 7.79086 18 10 18H14C16.2091 18 18 16.2091 18 14V10C18 7.79086 16.2091 6 14 6Z" fill="white"/>
</mask>
<g mask="url(#mask0_1_2)">
<path d="M10.6543 9.74752L10.6537 9.74579C10.4728 9.19836 10.375 8.61159 10.375 8C10.375 7.65596 10.094 7.375 9.75 7.375H8C7.65596 7.375 7.375 7.65596 7.375 8C7.375 12.764 11.236 16.625 16 16.625C16.344 16.625 16.625 16.344 16.625 16V14.255C16.625 13.911 16.344 13.63 16 13.63C15.3936 13.63 14.802 13.5322 14.2548 13.3515C14.0347 13.2763 13.7851 13.3331 13.6166 13.5016L12.5814 14.5368C11.2528 13.8356 10.1595 12.7466 9.46299 11.4188L10.4984 10.3834C10.6728 10.209 10.7226 9.96497 10.6543 9.74752Z" fill="#FFDF84" stroke="#FFDF84" stroke-width="0.25"/>
</g>
</svg>
