<?xml version="1.0" encoding="utf-8"?><svg xmlns="http://www.w3.org/2000/svg" xmlns:xlink="http://www.w3.org/1999/xlink"><symbol viewBox="0 0 32 32" id="Menu" xmlns="http://www.w3.org/2000/svg"><path d="M6.667 9.333h18.666M6.667 16h18.666M6.667 22.667h18.666" stroke-width="2" stroke-linecap="round"/></symbol><symbol viewBox="0 0 24 24" id="accordion-arrow" xmlns="http://www.w3.org/2000/svg"><path d="M15.88 14.71L12 10.83l-3.88 3.88a.996.996 0 11-1.41-1.41l4.59-4.59a.996.996 0 011.41 0l4.59 4.59c.39.39.39 1.02 0 1.41-.39.38-1.03.39-1.42 0z"/></symbol><symbol viewBox="0 0 24 24" id="arrow-left" xmlns="http://www.w3.org/2000/svg"><g clip-path="url(#cclip0_421_1367)"><path d="M15.41 7.41L10.83 12l4.58 4.59L14 18l-6-6 6-6 1.41 1.41z"/></g><defs><clipPath id="cclip0_421_1367"><path transform="rotate(-180 12 12)" d="M0 0h24v24H0z"/></clipPath></defs></symbol><symbol viewBox="0 0 24 24" id="breadcrumbs-arrow" xmlns="http://www.w3.org/2000/svg"><g clip-path="url(#dclip0_115_184)"><path d="M8.59 16.59L13.17 12 8.59 7.41 10 6l6 6-6 6-1.41-1.41z"/></g><defs><clipPath id="dclip0_115_184"><path d="M0 0h24v24H0z"/></clipPath></defs></symbol><symbol viewBox="0 0 24 24" id="cart" xmlns="http://www.w3.org/2000/svg"><path d="M8 12V8a4 4 0 014-4v0a4 4 0 014 4v4" stroke-width="2" stroke-linecap="round"/><path d="M3.694 12.668c.145-1.741.218-2.611.792-3.14C5.06 9 5.934 9 7.681 9h8.639c1.746 0 2.62 0 3.194.528.574.528.647 1.399.792 3.14l.514 6.166c.084 1.013.126 1.52-.17 1.843-.298.323-.806.323-1.824.323H5.174c-1.017 0-1.526 0-1.823-.323-.297-.323-.255-.83-.17-1.843l.513-6.166z" stroke-width="2"/></symbol><symbol viewBox="0 0 10 8" id="check" xmlns="http://www.w3.org/2000/svg"><path d="M1 4l3 3 5-6" stroke-width="2" stroke-linecap="round" stroke-linejoin="round"/></symbol><symbol viewBox="0 0 24 24" id="check-checked" xmlns="http://www.w3.org/2000/svg"><path d="M8 12l3 3 5-6" stroke-width="2" stroke-linecap="round" stroke-linejoin="round"/><rect x=".5" y=".5" width="23" height="23" rx="3.5"/></symbol><symbol viewBox="0 0 24 24" id="check-unchecked" xmlns="http://www.w3.org/2000/svg"><rect x=".5" y=".5" width="23" height="23" rx="3.5"/></symbol><symbol viewBox="0 0 32 32" id="close-btn" xmlns="http://www.w3.org/2000/svg"><path d="M5.333 24.16L13.537 16 5.333 7.84 7.86 5.333 18.606 16 7.86 26.667 5.333 24.16z"/><path d="M26.667 7.84L18.463 16l8.204 8.16-2.526 2.507L13.394 16 24.14 5.333l2.526 2.507z"/></symbol><symbol viewBox="0 0 32 32" id="close-modal-btn" xmlns="http://www.w3.org/2000/svg"><rect width="32" height="32" rx="16"/><path d="M8 22.12L14.153 16 8 9.88 9.894 8l8.06 8-8.06 8L8 22.12z"/><path d="M24 9.88L17.847 16 24 22.12 22.106 24l-8.06-8 8.06-8L24 9.88z"/></symbol><symbol viewBox="0 0 16 16" id="close-spheres-btn" xmlns="http://www.w3.org/2000/svg"><g clip-path="url(#kclip0_135_509)"><path d="M12.667 4.273l-.94-.94L8 7.06 4.274 3.333l-.94.94L7.06 8l-3.726 3.727.94.94L8 8.94l3.727 3.727.94-.94L8.94 8l3.727-3.727z"/></g><defs><clipPath id="kclip0_135_509"><path d="M0 0h16v16H0z"/></clipPath></defs></symbol><symbol viewBox="0 0 16 16" id="email" xmlns="http://www.w3.org/2000/svg"><g clip-path="url(#lclip0_8_184)"><path d="M13.333 2.667H2.667c-.734 0-1.327.6-1.327 1.333l-.007 8c0 .733.6 1.333 1.334 1.333h10.666c.734 0 1.334-.6 1.334-1.333V4c0-.733-.6-1.333-1.334-1.333zm0 2.666L8 8.667 2.667 5.333V4L8 7.333 13.333 4v1.333z"/></g><defs><clipPath id="lclip0_8_184"><path d="M0 0h16v16H0z"/></clipPath></defs></symbol><symbol viewBox="0 0 24 24" id="filter-btn" xmlns="http://www.w3.org/2000/svg"><path d="M5 12V4M19 20v-2M5 20v-4M19 12V4M12 7V4M12 20v-8" stroke-width="2" stroke-linecap="round"/><circle cx="5" cy="14" r="2" stroke-width="2" stroke-linecap="round"/><circle cx="12" cy="9" r="2" stroke-width="2" stroke-linecap="round"/><circle cx="19" cy="15" r="2" stroke-width="2" stroke-linecap="round"/></symbol><symbol viewBox="0 0 8 8" id="mineral-check" xmlns="http://www.w3.org/2000/svg"><path d="M6.4 0L8 1.6 1.6 8 0 6.4z"/><path d="M0 1.6L1.6 0 8 6.4 6.4 8z"/></symbol><symbol viewBox="0 0 16 16" id="phone" xmlns="http://www.w3.org/2000/svg"><g clip-path="url(#oclip0_37_188)"><path d="M4.413 7.193a10.1 10.1 0 004.394 4.394l1.466-1.467c.18-.18.447-.24.68-.16.747.247 1.554.38 2.38.38.367 0 .667.3.667.667v2.326c0 .367-.3.667-.667.667C7.073 14 2 8.927 2 2.667 2 2.3 2.3 2 2.667 2H5c.367 0 .667.3.667.667 0 .833.133 1.633.38 2.38a.669.669 0 01-.167.68L4.413 7.193z"/></g><defs><clipPath id="oclip0_37_188"><path d="M0 0h16v16H0z"/></clipPath></defs></symbol><symbol viewBox="0 0 24 24" id="radio-checked" xmlns="http://www.w3.org/2000/svg"><rect x=".5" y=".5" width="23" height="23" rx="11.5"/><rect x="6" y="6" width="12" height="12" rx="6"/></symbol><symbol viewBox="0 0 24 24" id="radio-unchecked" xmlns="http://www.w3.org/2000/svg"><rect x=".5" y=".5" width="23" height="23" rx="11.5"/></symbol><symbol viewBox="0 0 32 32" id="round-btn" xmlns="http://www.w3.org/2000/svg"><rect width="32" height="32" rx="16"/><g clip-path="url(#rclip0_379_1181)"><path d="M11.453 22.12L17.56 16l-6.107-6.12L13.333 8l8 8-8 8-1.88-1.88z"/></g><defs><clipPath id="rclip0_379_1181"><path d="M0 0h32v32H0z"/></clipPath></defs></symbol><symbol viewBox="0 0 24 24" id="search" xmlns="http://www.w3.org/2000/svg"><circle cx="11" cy="11" r="7" stroke-width="2"/><path d="M20 20l-3-3" stroke-width="2" stroke-linecap="round"/></symbol><symbol viewBox="0 0 24 24" id="sort" xmlns="http://www.w3.org/2000/svg"><path d="M5 17h14M5 12h10M5 7h6" stroke-width="2" stroke-linecap="round"/></symbol></svg>